#!OML:ASF F:\VICON\USERDATA\INSTALL\rory3\rory3.ASF
:FULLY-SPECIFIED
:DEGREES
919
root 4.20752 15.958 1.96952 23.7965 -3.90349 -3.21864
lowerback 9.4618 -1.11908 2.61321
upperback 9.22044 -1.33055 -0.711895
thorax 4.2532 -0.505307 -2.13011
lowerneck -19.2242 -0.237971 -2.20753
upperneck 38.7536 1.23695 -1.87703
head 17.5247 -0.133379 -0.224427
rclavicle -1.90833e-014 1.43125e-014
rhumerus -56.9249 73.0997 -57.8263
rradius 56.6728
rwrist -16.3586
rhand -7.89586 -40.9571
rfingers 7.12502
rthumb 18.009 -70.1433
lclavicle -1.90833e-014 1.43125e-014
lhumerus -42.9562 -79.1492 36.7942
lradius 59.0835
lwrist 63.3303
lhand -26.5706 -26.6393
lfingers 7.12502
lthumb -0.00534915 3.34047
rfemur -75.9714 -1.94721 20.8764
rtibia 36.7978
rfoot 36.3617 -1.27526
rtoes 0.565662
lfemur -57.7236 -0.369726 -26.3101
ltibia 59.0612
lfoot -23.6049 6.67651
ltoes 9.24389
920
root 4.20646 15.9593 1.96986 23.7637 -3.88171 -3.18117
lowerback 9.4436 -1.11598 2.58714
upperback 9.27682 -1.32899 -0.713497
thorax 4.32415 -0.504232 -2.11837
lowerneck -19.3227 -0.263935 -2.15143
upperneck 38.8153 1.20984 -1.9449
head 17.586 -0.146684 -0.271761
rclavicle -1.15295e-014 -1.43125e-014
rhumerus -56.6081 72.9096 -57.5482
rradius 56.5839
rwrist -16.167
rhand -7.91663 -40.948
rfingers 7.12502
rthumb 17.9891 -70.1361
lclavicle -1.15295e-014 -1.43125e-014
lhumerus -41.9724 -78.7896 35.9409
lradius 58.914
lwrist 62.9462
lhand -26.5261 -26.2578
lfingers 7.12502
lthumb 0.0375969 3.72195
rfemur -75.9339 -1.95866 20.8218
rtibia 36.8005
rfoot 36.3544 -1.74127
rtoes 1.58753
lfemur -57.6242 -0.455566 -26.3094
ltibia 59.0064
lfoot -23.5928 6.76421
ltoes 9.57924
921
root 4.20465 15.9563 1.9679 23.7397 -3.87587 -3.06174
lowerback 9.49016 -1.10163 2.47685
upperback 9.30042 -1.31488 -0.719783
thorax 4.32601 -0.50273 -2.06339
lowerneck -19.567 -0.325273 -2.1831
upperneck 39.0756 1.13526 -1.91582
head 17.7959 -0.181666 -0.271586
rclavicle 9.93923e-015 6.36111e-015
rhumerus -56.4586 72.8569 -57.3249
rradius 56.5692
rwrist -16.0706
rhand -7.91965 -40.9198
rfingers 7.12502
rthumb 17.9861 -70.1081
lclavicle 9.93923e-015 6.36111e-015
lhumerus -41.0121 -78.4608 35.1509
lradius 58.7524
lwrist 62.6396
lhand -26.5596 -25.9799
lfingers 7.12502
lthumb 0.00524111 3.99988
rfemur -75.9539 -1.99337 20.6887
rtibia 36.8461
rfoot 36.3061 -1.84967
rtoes 1.59985
lfemur -57.5728 -0.519019 -26.4183
ltibia 58.9585
lfoot -23.5137 6.82498
ltoes 9.67943
922
root 4.20318 15.9549 1.96745 23.7029 -3.92318 -2.92124
lowerback 9.56418 -1.07341 2.33073
upperback 9.3009 -1.28344 -0.744181
thorax 4.28897 -0.494786 -2.00742
lowerneck -19.7691 -0.386332 -2.23213
upperneck 39.3091 1.0463 -1.84182
head 17.9812 -0.217766 -0.250178
rclavicle -1.59028e-015 -8.74653e-015
rhumerus -56.4796 72.9699 -57.1795
rradius 56.7169
rwrist -16.262
rhand -8.38411 -40.9356
rfingers 7.12502
rthumb 17.5392 -70.1645
lclavicle -1.59028e-015 -8.74653e-015
lhumerus -40.5872 -78.323 34.8027
lradius 58.7364
lwrist 62.78
lhand -26.6879 -26.0559
lfingers 7.12502
lthumb -0.118682 3.92379
rfemur -75.9647 -2.01354 20.5514
rtibia 36.9026
rfoot 36.2331 -1.92364
rtoes 1.62882
lfemur -57.5165 -0.55077 -26.5589
ltibia 58.9044
lfoot -23.471 6.81044
ltoes 9.81705
923
root 4.20126 15.9539 1.96935 23.7038 -3.94773 -2.84921
lowerback 9.5883 -1.05543 2.24821
upperback 9.2952 -1.26348 -0.756871
thorax 4.27146 -0.489214 -1.97507
lowerneck -19.7802 -0.420103 -2.28464
upperneck 39.3028 0.984187 -1.76405
head 17.9792 -0.238773 -0.217281
rclavicle -9.14409e-015 7.15625e-015
rhumerus -56.2554 72.7291 -56.9955
rradius 56.6274
rwrist -16.1019
rhand -9.05693 -40.9701
rfingers 7.12502
rthumb 16.8916 -70.2555
lclavicle -9.14409e-015 7.15625e-015
lhumerus -40.5493 -78.3435 34.7823
lradius 58.7742
lwrist 62.9522
lhand -26.8097 -26.2769
lfingers 7.12502
lthumb -0.236335 3.70266
rfemur -75.9938 -1.99486 20.4478
rtibia 36.9491
rfoot 36.217 -2.10957
rtoes 2.03842
lfemur -57.5105 -0.576462 -26.6179
ltibia 58.8607
lfoot -23.4742 6.80528
ltoes 9.69786
924
root 4.19954 15.9553 1.97061 23.7199 -3.94131 -2.79241
lowerback 9.58072 -1.04878 2.18918
upperback 9.2899 -1.25788 -0.763179
thorax 4.27085 -0.489428 -1.94894
lowerneck -19.8021 -0.442837 -2.29629
upperneck 39.3222 0.946638 -1.74164
head 17.9958 -0.252314 -0.212731
rclavicle 1.47101e-014 -7.95139e-016
rhumerus -56.2046 72.6947 -56.9431
rradius 56.5861
rwrist -16.018
rhand -9.1274 -41.0728
rfingers 7.12502
rthumb 16.8238 -70.3639
lclavicle 1.47101e-014 -7.95139e-016
lhumerus -40.7626 -78.5272 34.9787
lradius 58.8623
lwrist 63.0025
lhand -26.8022 -26.416
lfingers 7.12502
lthumb -0.229015 3.56358
rfemur -76.027 -2.00056 20.3693
rtibia 36.9677
rfoot 36.282 -1.74659
rtoes 1.37685
lfemur -57.5233 -0.601223 -26.6706
ltibia 58.8235
lfoot -23.4209 6.80919
ltoes 9.63572
925
root 4.20029 15.9584 1.97278 23.7188 -3.98349 -2.7547
lowerback 9.54989 -1.03257 2.15404
upperback 9.29638 -1.23894 -0.783172
thorax 4.29576 -0.480886 -1.95182
lowerneck -19.8356 -0.456474 -2.26383
upperneck 39.3383 0.91571 -1.74466
head 18.0139 -0.260336 -0.226566
rclavicle -1.55052e-014 5.56597e-015
rhumerus -56.5016 72.8133 -57.2196
rradius 56.6118
rwrist -16.1312
rhand -8.99808 -41.0987
rfingers 7.12502
rthumb 16.9483 -70.3792
lclavicle -1.55052e-014 5.56597e-015
lhumerus -41.0015 -78.7183 35.1924
lradius 58.9262
lwrist 62.9766
lhand -26.5179 -26.2464
lfingers 7.12502
lthumb 0.0455732 3.7333
rfemur -76.0304 -2.0231 20.3788
rtibia 36.9533
rfoot 36.2881 -2.00976
rtoes 1.89085
lfemur -57.5044 -0.591474 -26.7268
ltibia 58.8036
lfoot -23.4205 6.7676
ltoes 9.86967
926
root 4.20036 15.9572 1.97499 23.6995 -4.0236 -2.77294
lowerback 9.56602 -1.00573 2.18302
upperback 9.31194 -1.20185 -0.792912
thorax 4.30496 -0.460335 -1.98034
lowerneck -19.846 -0.473282 -2.26093
upperneck 39.3066 0.878907 -1.72041
head 17.998 -0.270249 -0.222922
rclavicle -1.66979e-014 -3.18055e-015
rhumerus -56.8148 72.9504 -57.5097
rradius 56.6439
rwrist -16.2535
rhand -8.40241 -40.9083
rfingers 7.12502
rthumb 17.5216 -70.1387
lclavicle -1.66979e-014 -3.18055e-015
lhumerus -40.6974 -78.7364 34.9305
lradius 58.8616
lwrist 62.7416
lhand -26.2175 -25.9157
lfingers 7.12502
lthumb 0.335643 4.06377
rfemur -76.0046 -1.98435 20.398
rtibia 36.9372
rfoot 36.3316 -1.91199
rtoes 1.65625
lfemur -57.4725 -0.562285 -26.7076
ltibia 58.8173
lfoot -23.4873 6.72266
ltoes 9.84002
927
root 4.20001 15.9554 1.97618 23.7359 -4.00023 -2.87579
lowerback 9.56908 -0.987725 2.32281
upperback 9.28642 -1.1706 -0.772724
thorax 4.27624 -0.438433 -2.03913
lowerneck -19.8404 -0.487535 -2.30754
upperneck 39.3317 0.835855 -1.62283
head 18.0096 -0.280391 -0.178287
rclavicle -1.82882e-014 1.07344e-014
rhumerus -57.0804 73.0613 -57.7717
rradius 56.6549
rwrist -16.4021
rhand -7.81552 -40.8634
rfingers 7.12502
rthumb 18.0863 -70.0425
lclavicle -1.82882e-014 1.07344e-014
lhumerus -40.4743 -78.747 34.7629
lradius 58.7919
lwrist 62.4994
lhand -26.4749 -26.1769
lfingers 7.12502
lthumb 0.0870449 3.80284
rfemur -76.0252 -1.95314 20.5195
rtibia 36.9269
rfoot 36.3082 -1.79911
rtoes 1.32825
lfemur -57.524 -0.531886 -26.5907
ltibia 58.8555
lfoot -23.4987 6.70417
ltoes 9.83444
